<svg id="Layer_1" data-name="Layer 1" xmlns="http://www.w3.org/2000/svg" xmlns:xlink="http://www.w3.org/1999/xlink" viewBox="0 0 670.71 35.28"><defs><style>.cls-1{fill:#3a3c3c;}.cls-2{fill:url(#linear-gradient);}.cls-3{fill:url(#linear-gradient-2);}.cls-4{fill:url(#linear-gradient-3);}.cls-5{fill:url(#linear-gradient-4);}.cls-6{fill:url(#linear-gradient-5);}.cls-7{fill:url(#linear-gradient-6);}.cls-8{fill:url(#linear-gradient-7);}.cls-9{fill:url(#linear-gradient-8);}.cls-10{fill:url(#linear-gradient-9);}.cls-11{fill:url(#linear-gradient-10);}.cls-12{fill:url(#linear-gradient-11);}.cls-13{fill:url(#linear-gradient-12);}.cls-14{fill:url(#linear-gradient-13);}.cls-15{fill:url(#linear-gradient-14);}.cls-16{fill:url(#linear-gradient-15);}.cls-17{fill:url(#linear-gradient-16);}.cls-18{fill:url(#linear-gradient-17);}.cls-19{fill:url(#linear-gradient-18);}.cls-20{fill:url(#linear-gradient-19);}.cls-21{fill:url(#linear-gradient-20);}.cls-22{fill:url(#linear-gradient-21);}.cls-23{fill:url(#linear-gradient-22);}.cls-24{fill:url(#linear-gradient-23);}.cls-25{fill:url(#linear-gradient-24);}.cls-26{fill:url(#linear-gradient-25);}.cls-27{fill:url(#linear-gradient-26);}.cls-28{fill:url(#linear-gradient-27);}.cls-29{fill:url(#linear-gradient-28);}.cls-30{fill:url(#linear-gradient-29);}.cls-31{fill:url(#linear-gradient-30);}.cls-32{fill:url(#linear-gradient-31);}.cls-33{fill:url(#linear-gradient-32);}.cls-34{fill:url(#linear-gradient-33);}.cls-35{fill:url(#linear-gradient-35);}.cls-36{fill:url(#linear-gradient-36);}.cls-37{fill:url(#linear-gradient-37);}.cls-38{fill:url(#linear-gradient-38);}.cls-39{fill:url(#linear-gradient-39);}.cls-40{fill:url(#linear-gradient-40);}.cls-41{fill:url(#linear-gradient-41);}.cls-42{fill:url(#linear-gradient-42);}</style><linearGradient id="linear-gradient" x1="363.18" y1="341.23" x2="172.99" y2="224.75" gradientTransform="matrix(1, 0, 0, 1, -128.47, -99.57)" gradientUnits="userSpaceOnUse"><stop offset="0" stop-color="#0000e2"/><stop offset="1" stop-color="#38adff"/></linearGradient><linearGradient id="linear-gradient-2" x1="279.93" y1="108.84" x2="117.39" y2="213.47" gradientTransform="matrix(1, 0, 0, 1, -128.47, -99.57)" gradientUnits="userSpaceOnUse"><stop offset="0" stop-color="#9bd7ff"/><stop offset="1" stop-color="#38adff"/></linearGradient><linearGradient id="linear-gradient-3" x1="366.3" y1="243" x2="203.75" y2="347.64" xlink:href="#linear-gradient-2"/><linearGradient id="linear-gradient-4" x1="312.48" y1="159.4" x2="149.93" y2="264.03" xlink:href="#linear-gradient-2"/><linearGradient id="linear-gradient-5" x1="337" y1="197.5" x2="174.46" y2="302.13" xlink:href="#linear-gradient-2"/><linearGradient id="linear-gradient-6" x1="350.53" y1="218.51" x2="187.99" y2="323.15" xlink:href="#linear-gradient-2"/><linearGradient id="linear-gradient-7" x1="316.69" y1="412.46" x2="249.56" y2="213.71" gradientTransform="matrix(1, 0, 0, 1, -128.47, -99.57)" gradientUnits="userSpaceOnUse"><stop offset="0" stop-color="#005aff"/><stop offset="1" stop-color="#00b8ff"/></linearGradient><linearGradient id="linear-gradient-8" x1="310.07" y1="155.65" x2="147.52" y2="260.28" xlink:href="#linear-gradient-2"/><linearGradient id="linear-gradient-9" x1="310.07" y1="155.65" x2="147.52" y2="260.28" gradientTransform="matrix(1, 0, 0, 1, -128.47, -99.57)" gradientUnits="userSpaceOnUse"><stop offset="0" stop-color="#cdebff"/><stop offset="1" stop-color="#69c2ff"/></linearGradient><linearGradient id="linear-gradient-10" x1="296.52" y1="134.61" x2="133.98" y2="239.25" xlink:href="#linear-gradient-2"/><linearGradient id="linear-gradient-11" x1="296.52" y1="134.61" x2="133.98" y2="239.25" gradientTransform="matrix(1, 0, 0, 1, -128.47, -99.57)" gradientUnits="userSpaceOnUse"><stop offset="0" stop-color="#9bd7ff"/><stop offset="1" stop-color="#69c2ff"/></linearGradient><linearGradient id="linear-gradient-12" x1="296.52" y1="134.61" x2="133.98" y2="239.25" xlink:href="#linear-gradient-9"/><linearGradient id="linear-gradient-13" x1="326.25" y1="180.79" x2="163.7" y2="285.42" xlink:href="#linear-gradient-2"/><linearGradient id="linear-gradient-14" x1="326.25" y1="180.79" x2="163.7" y2="285.42" xlink:href="#linear-gradient-9"/><linearGradient id="linear-gradient-15" x1="370.67" y1="329" x2="180.48" y2="212.52" xlink:href="#linear-gradient"/><linearGradient id="linear-gradient-16" x1="341.57" y1="204.59" x2="179.02" y2="309.22" xlink:href="#linear-gradient-2"/><linearGradient id="linear-gradient-17" x1="121.78" y1="342.86" x2="271.83" y2="250.72" xlink:href="#linear-gradient"/><linearGradient id="linear-gradient-18" x1="333.9" y1="192.68" x2="171.36" y2="297.31" xlink:href="#linear-gradient-2"/><linearGradient id="linear-gradient-19" x1="70.81" y1="354.19" x2="353.13" y2="186.38" gradientTransform="matrix(1, 0, 0, 1, -128.47, -99.57)" gradientUnits="userSpaceOnUse"><stop offset="0" stop-color="#0000e2"/><stop offset="1" stop-color="#00d0ff"/></linearGradient><linearGradient id="linear-gradient-20" x1="114.27" y1="330.63" x2="264.32" y2="238.49" xlink:href="#linear-gradient"/><linearGradient id="linear-gradient-21" x1="304.17" y1="146.48" x2="141.62" y2="251.12" xlink:href="#linear-gradient-2"/><linearGradient id="linear-gradient-22" x1="304.17" y1="146.48" x2="141.62" y2="251.12" xlink:href="#linear-gradient-9"/><linearGradient id="linear-gradient-23" x1="304.17" y1="146.48" x2="141.62" y2="251.12" gradientTransform="matrix(1, 0, 0, 1, -128.47, -99.57)" gradientUnits="userSpaceOnUse"><stop offset="0" stop-color="#69c2ff"/><stop offset="1" stop-color="#38adff"/></linearGradient><linearGradient id="linear-gradient-24" x1="318.59" y1="168.88" x2="156.04" y2="273.52" xlink:href="#linear-gradient-2"/><linearGradient id="linear-gradient-25" x1="318.59" y1="168.88" x2="156.04" y2="273.52" xlink:href="#linear-gradient-9"/><linearGradient id="linear-gradient-26" x1="318.59" y1="168.88" x2="156.04" y2="273.52" gradientTransform="matrix(1, 0, 0, 1, -128.47, -99.57)" gradientUnits="userSpaceOnUse"><stop offset="0" stop-color="#38adff"/><stop offset="1" stop-color="#9bd7ff"/></linearGradient><linearGradient id="linear-gradient-27" x1="303.28" y1="145.1" x2="140.73" y2="249.74" xlink:href="#linear-gradient-2"/><linearGradient id="linear-gradient-28" x1="303.28" y1="145.1" x2="140.73" y2="249.74" xlink:href="#linear-gradient-9"/><linearGradient id="linear-gradient-29" x1="303.28" y1="145.1" x2="140.73" y2="249.74" xlink:href="#linear-gradient-23"/><linearGradient id="linear-gradient-30" x1="303.28" y1="145.1" x2="140.73" y2="249.74" xlink:href="#linear-gradient-26"/><linearGradient id="linear-gradient-31" x1="296.52" y1="134.61" x2="133.98" y2="239.25" xlink:href="#linear-gradient-2"/><linearGradient id="linear-gradient-32" x1="296.52" y1="134.61" x2="133.98" y2="239.25" xlink:href="#linear-gradient-9"/><linearGradient id="linear-gradient-33" x1="296.52" y1="134.61" x2="133.98" y2="239.25" xlink:href="#linear-gradient-23"/><linearGradient id="linear-gradient-35" x1="303.26" y1="276.55" x2="199.24" y2="364.78" gradientTransform="matrix(1, 0, 0, 1, -128.47, -99.57)" gradientUnits="userSpaceOnUse"><stop offset="0" stop-color="#00b8ff"/><stop offset="1" stop-color="#0000e2"/></linearGradient><linearGradient id="linear-gradient-36" x1="48.24" y1="316.22" x2="330.56" y2="148.41" xlink:href="#linear-gradient-19"/><linearGradient id="linear-gradient-37" x1="302.43" y1="143.78" x2="139.88" y2="248.42" xlink:href="#linear-gradient-23"/><linearGradient id="linear-gradient-38" x1="297.01" y1="135.36" x2="134.46" y2="239.99" xlink:href="#linear-gradient-11"/><linearGradient id="linear-gradient-39" x1="289.38" y1="123.52" x2="126.84" y2="228.15" gradientTransform="matrix(1, 0, 0, 1, -128.47, -99.57)" gradientUnits="userSpaceOnUse"><stop offset="0" stop-color="#69c2ff"/><stop offset="1" stop-color="#9bd7ff"/></linearGradient><linearGradient id="linear-gradient-40" x1="368.63" y1="394.91" x2="301.51" y2="196.17" xlink:href="#linear-gradient-7"/><linearGradient id="linear-gradient-41" x1="350.52" y1="218.49" x2="187.97" y2="323.13" gradientTransform="matrix(1, 0, 0, 1, -128.47, -99.57)" gradientUnits="userSpaceOnUse"><stop offset="0" stop-color="#cdebff"/><stop offset="1" stop-color="#38adff"/></linearGradient><linearGradient id="linear-gradient-42" x1="319.9" y1="170.93" x2="157.35" y2="275.56" xlink:href="#linear-gradient-9"/></defs><title>dessa.logo_dark</title><path class="cls-1" d="M492.48,180.47v71.6a31.38,31.38,0,0,1-31.31,31.58H438.3a9,9,0,0,1-8.71-8.72V157.61a8.78,8.78,0,0,1,8.71-8.72h22.87A31.38,31.38,0,0,1,492.48,180.47Zm-17.43,0a14,14,0,0,0-13.88-14.15H447V266h14.15a13.94,13.94,0,0,0,13.88-13.88Z" transform="translate(-126.64 -99.36)"/><path class="cls-1" d="M532.49,166.32v41.1h23.68a4.31,4.31,0,0,1,4.36,4.36v8.71a4.3,4.3,0,0,1-4.36,4.35H532.49v41.38h23.68a4.31,4.31,0,0,1,4.36,4.36v8.71a4.31,4.31,0,0,1-4.36,4.36H523.78a8.78,8.78,0,0,1-8.71-8.72V157.61a8.61,8.61,0,0,1,8.71-8.72h32.39a4.31,4.31,0,0,1,4.36,4.36V162a4.31,4.31,0,0,1-4.36,4.36Z" transform="translate(-126.64 -99.36)"/><path class="cls-1" d="M617.42,189.46V180.2a13.89,13.89,0,0,0-27.77,0c0,3.54,0,3.54.82,4.63l37.84,50.09c6.53,8.71,6.53,8.71,6.53,17.42a31.31,31.31,0,1,1-62.61,0v-9.26a4.3,4.3,0,0,1,4.36-4.35h8.71a4.29,4.29,0,0,1,4.35,4.35v9.26a13.89,13.89,0,0,0,27.77,0c0-3.54,0-3.54-.82-4.63l-37.84-50.09c-6.53-8.71-6.53-8.71-6.53-17.42a31.31,31.31,0,1,1,62.61,0v9.26a4.29,4.29,0,0,1-4.35,4.35h-8.71A4.29,4.29,0,0,1,617.42,189.46Z" transform="translate(-126.64 -99.36)"/><path class="cls-1" d="M697.18,189.46V180.2a13.89,13.89,0,0,0-27.77,0c0,3.54,0,3.54.82,4.63l37.84,50.09c6.53,8.71,6.53,8.71,6.53,17.42a31.31,31.31,0,1,1-62.61,0v-9.26a4.3,4.3,0,0,1,4.36-4.35h8.71a4.29,4.29,0,0,1,4.35,4.35v9.26a13.89,13.89,0,0,0,27.77,0c0-3.54,0-3.54-.82-4.63l-37.84-50.09C652,188.91,652,188.91,652,180.2a31.31,31.31,0,1,1,62.61,0v9.26a4.29,4.29,0,0,1-4.35,4.35h-8.71A4.29,4.29,0,0,1,697.18,189.46Z" transform="translate(-126.64 -99.36)"/><path class="cls-1" d="M797.36,180.47v98.82a4.31,4.31,0,0,1-4.36,4.36h-8.71a4.31,4.31,0,0,1-4.36-4.36V225.12h-28v54.17a4.31,4.31,0,0,1-4.36,4.36h-8.71a4.31,4.31,0,0,1-4.36-4.36V180.47a31.45,31.45,0,0,1,62.89,0Zm-17.43,0a14,14,0,0,0-28,0V207.7h28Z" transform="translate(-126.64 -99.36)"/><polygon class="cls-2" points="87.4 168.05 116.48 151.17 87.34 134.41 87.4 168.05"/><polygon class="cls-3" points="116.23 16.86 116.27 16.84 116.22 16.81 58.06 50.54 58.12 84.08 116.29 50.31 116.23 16.86"/><polygon class="cls-4" points="174.77 184.74 174.77 184.74 145.69 201.66 174.77 184.74"/><polygon class="cls-5" points="145.43 67.06 145.42 67.06 173.77 83.36 145.43 67.06"/><polygon class="cls-6" points="174.52 50.33 174.58 83.83 203.71 100.57 203.84 167.82 232.94 150.94 232.81 83.85 174.52 50.33"/><polygon class="cls-7" points="174.77 184.69 116.48 151.17 116.54 184.85 145.69 201.66 174.77 184.74 174.77 184.69 174.77 184.69"/><polygon class="cls-8" points="174.77 184.69 116.48 151.17 116.54 184.85 145.69 201.66 174.77 184.69 174.77 184.69"/><polygon class="cls-9" points="58.18 117.65 87.34 134.41 87.34 134.41 58.18 117.65"/><polygon class="cls-10" points="58.18 117.65 87.34 134.41 87.34 134.41 58.18 117.65"/><polygon class="cls-11" points="145.42 67.06 116.29 50.31 145.42 67.06 145.42 67.06"/><polygon class="cls-12" points="145.42 67.06 116.29 50.31 145.42 67.06 145.42 67.06"/><polygon class="cls-13" points="145.42 67.06 116.29 50.31 145.42 67.06 145.42 67.06"/><polygon class="cls-14" points="87.34 134.41 116.48 151.17 87.34 134.41 87.34 134.41"/><polygon class="cls-15" points="87.34 134.41 116.48 151.17 87.34 134.41 87.34 134.41"/><polygon class="cls-16" points="87.34 134.41 116.48 151.17 87.34 134.41 87.34 134.41"/><polygon class="cls-17" points="87.4 168.05 116.54 184.85 116.48 151.17 87.4 168.05"/><polygon class="cls-18" points="87.4 168.05 116.54 184.85 116.48 151.17 87.4 168.05"/><polygon class="cls-19" points="87.4 168.05 87.4 168.05 116.48 151.17 87.4 168.05"/><polygon class="cls-20" points="87.4 168.05 87.4 168.05 116.48 151.17 87.4 168.05"/><polygon class="cls-21" points="87.4 168.05 87.4 168.05 116.48 151.17 87.4 168.05"/><polygon class="cls-22" points="145.42 67.06 116.35 83.9 116.35 83.9 145.42 67.06"/><polygon class="cls-23" points="145.42 67.06 116.35 83.9 116.35 83.9 145.42 67.06"/><polygon class="cls-24" points="145.42 67.06 116.35 83.9 116.35 83.9 145.42 67.06"/><polygon class="cls-25" points="87.27 100.74 87.34 134.41 116.48 151.17 116.35 83.9 87.27 100.74"/><polygon class="cls-26" points="87.27 100.74 87.34 134.41 116.48 151.17 116.35 83.9 87.27 100.74"/><polygon class="cls-27" points="87.27 100.74 87.34 134.41 116.48 151.17 116.35 83.9 87.27 100.74"/><polygon class="cls-28" points="116.35 83.9 87.27 100.74 116.35 83.9 116.35 83.9"/><polygon class="cls-29" points="116.35 83.9 87.27 100.74 116.35 83.9 116.35 83.9"/><polygon class="cls-30" points="116.35 83.9 87.27 100.74 116.35 83.9 116.35 83.9"/><polygon class="cls-31" points="116.35 83.9 87.27 100.74 116.35 83.9 116.35 83.9"/><polygon class="cls-32" points="116.29 50.31 116.29 50.31 116.35 83.9 145.42 67.06 116.29 50.31"/><polygon class="cls-33" points="116.29 50.31 116.29 50.31 116.35 83.9 145.42 67.06 116.29 50.31"/><polygon class="cls-34" points="116.29 50.31 116.29 50.31 116.35 83.9 145.42 67.06 116.29 50.31"/><polygon class="cls-32" points="116.29 50.31 116.29 50.31 116.35 83.9 145.42 67.06 116.29 50.31"/><polygon class="cls-35" points="116.54 184.85 116.61 218.34 145.75 235.28 174.84 218.41 174.77 184.69 145.69 201.66 116.54 184.85"/><polygon class="cls-36" points="87.34 134.41 58.18 117.65 58.12 84.08 0 117.82 0.06 151.3 58.44 184.86 87.4 168.05 87.34 134.41"/><polygon class="cls-37" points="87.34 134.41 87.27 100.74 116.35 83.9 116.29 50.31 58.12 84.08 58.18 117.65 87.34 134.41"/><polygon class="cls-38" points="116.29 50.31 116.29 50.31 145.42 67.06 145.43 67.06 173.77 83.36 174.58 83.83 174.52 50.33 116.27 16.84 116.23 16.86 116.29 50.31"/><polygon class="cls-39" points="174.46 16.94 145.31 0 116.27 16.84 174.52 50.33 174.46 16.94"/><polygon class="cls-40" points="174.58 83.83 174.65 117.41 174.77 184.69 203.84 167.82 203.71 100.57 174.58 83.83"/><polygon class="cls-41" points="174.77 184.69 174.77 184.69 174.65 117.41 116.48 151.17 174.77 184.69"/><polygon class="cls-42" points="145.42 67.06 145.42 67.06 116.35 83.9 116.48 151.17 174.65 117.41 174.58 83.83 173.77 83.36 145.42 67.06"/></svg>