<?xml version="1.0" encoding="utf-8"?>
<!-- Generator: Adobe Illustrator 22.1.0, SVG Export Plug-In . SVG Version: 6.00 Build 0)  -->
<svg version="1.1" id="Layer_1" xmlns="http://www.w3.org/2000/svg" xmlns:xlink="http://www.w3.org/1999/xlink" x="0px" y="0px"
	 viewBox="0 0 300 300" style="enable-background:new 0 0 300 300;" xml:space="preserve">
<style type="text/css">
	.st0{fill:url(#SVGID_1_);}
	.st1{fill:url(#SVGID_2_);}
	.st2{fill:url(#SVGID_3_);}
	.st3{fill:url(#SVGID_4_);}
	.st4{fill:url(#SVGID_5_);}
	.st5{fill:url(#SVGID_6_);}
	.st6{fill:url(#SVGID_7_);}
	.st7{fill:url(#SVGID_8_);}
	.st8{fill:url(#SVGID_9_);}
	.st9{fill:url(#SVGID_10_);}
	.st10{fill:url(#SVGID_11_);}
	.st11{fill:url(#SVGID_12_);}
	.st12{fill:url(#SVGID_13_);}
	.st13{fill:url(#SVGID_14_);}
	.st14{fill:url(#SVGID_15_);}
	.st15{fill:url(#SVGID_16_);}
	.st16{fill:url(#SVGID_17_);}
	.st17{fill:url(#SVGID_18_);}
	.st18{fill:url(#SVGID_19_);}
	.st19{fill:url(#SVGID_20_);}
	.st20{fill:url(#SVGID_21_);}
	.st21{fill:url(#SVGID_22_);}
	.st22{fill:url(#SVGID_23_);}
	.st23{fill:url(#SVGID_24_);}
	.st24{fill:url(#SVGID_25_);}
	.st25{fill:url(#SVGID_26_);}
	.st26{fill:url(#SVGID_27_);}
	.st27{fill:url(#SVGID_28_);}
	.st28{fill:url(#SVGID_29_);}
	.st29{fill:url(#SVGID_30_);}
	.st30{fill:url(#SVGID_31_);}
	.st31{fill:url(#SVGID_32_);}
	.st32{fill:url(#SVGID_33_);}
	.st33{fill:url(#SVGID_34_);}
	.st34{fill:url(#SVGID_35_);}
	.st35{fill:url(#SVGID_36_);}
	.st36{fill:url(#SVGID_37_);}
	.st37{fill:url(#SVGID_38_);}
	.st38{fill:url(#SVGID_39_);}
	.st39{fill:url(#SVGID_40_);}
	.st40{fill:url(#SVGID_41_);}
	.st41{fill:url(#SVGID_42_);}
	.st42{fill:url(#SVGID_43_);}
	.st43{fill:url(#SVGID_44_);}
</style>
<linearGradient id="SVGID_1_" gradientUnits="userSpaceOnUse" x1="773.7145" y1="-859.4991" x2="773.7145" y2="-877.0773">
	<stop  offset="5.025126e-03" style="stop-color:#F15A24"/>
	<stop  offset="1" style="stop-color:#FBB03B"/>
</linearGradient>
<polygon class="st0" points="773.7,-868.3 773.7,-868.3 773.7,-868.3 "/>
<linearGradient id="SVGID_2_" gradientUnits="userSpaceOnUse" x1="768.2109" y1="-861.9025" x2="779.212" y2="-874.6744">
	<stop  offset="5.025126e-03" style="stop-color:#F15A24"/>
	<stop  offset="1" style="stop-color:#FBB03B"/>
</linearGradient>
<polygon class="st1" points="773.7,-868.3 773.7,-868.3 773.7,-868.3 "/>
<g>
	
		<linearGradient id="SVGID_3_" gradientUnits="userSpaceOnUse" x1="276.6155" y1="281.045" x2="76.0012" y2="158.1774" gradientTransform="matrix(1 -1.880132e-03 1.880185e-03 1 -1.7424 -0.4265)">
		<stop  offset="2.414416e-03" style="stop-color:#0000E2"/>
		<stop  offset="1" style="stop-color:#38ADFF"/>
	</linearGradient>
	<polygon class="st2" points="119.3,203.2 150,185.4 119.3,167.7 	"/>
	
		<linearGradient id="SVGID_4_" gradientUnits="userSpaceOnUse" x1="188.8055" y1="35.91" x2="17.3463" y2="146.2826" gradientTransform="matrix(1 -1.880132e-03 1.880185e-03 1 -1.7424 -0.4265)">
		<stop  offset="2.944410e-03" style="stop-color:#9BD7FF"/>
		<stop  offset="1" style="stop-color:#38ADFF"/>
	</linearGradient>
	<polygon class="st3" points="149.7,43.7 149.8,43.7 149.7,43.6 88.4,79.2 88.5,114.6 149.8,79 	"/>
	
		<linearGradient id="SVGID_5_" gradientUnits="userSpaceOnUse" x1="279.9077" y1="177.4328" x2="108.4483" y2="287.8055" gradientTransform="matrix(1 -1.880132e-03 1.880185e-03 1 -1.7424 -0.4265)">
		<stop  offset="2.944410e-03" style="stop-color:#9BD7FF"/>
		<stop  offset="1" style="stop-color:#38ADFF"/>
	</linearGradient>
	<polygon class="st4" points="211.5,220.8 211.5,220.8 180.8,238.6 	"/>
	
		<linearGradient id="SVGID_6_" gradientUnits="userSpaceOnUse" x1="223.1355" y1="89.2397" x2="51.6756" y2="199.6127" gradientTransform="matrix(1 -1.880132e-03 1.880185e-03 1 -1.7424 -0.4265)">
		<stop  offset="2.944410e-03" style="stop-color:#9BD7FF"/>
		<stop  offset="1" style="stop-color:#38ADFF"/>
	</linearGradient>
	<polygon class="st5" points="180.5,96.6 180.5,96.7 210.4,113.8 	"/>
	
		<linearGradient id="SVGID_7_" gradientUnits="userSpaceOnUse" x1="249.0058" y1="129.4281" x2="77.5466" y2="239.8006" gradientTransform="matrix(1 -1.880132e-03 1.880185e-03 1 -1.7424 -0.4265)">
		<stop  offset="2.944410e-03" style="stop-color:#9BD7FF"/>
		<stop  offset="1" style="stop-color:#38ADFF"/>
	</linearGradient>
	<polygon class="st6" points="211.2,79 211.3,114.3 242,132 242.2,202.9 272.9,185.1 272.7,114.4 	"/>
	
		<linearGradient id="SVGID_8_" gradientUnits="userSpaceOnUse" x1="263.2759" y1="151.596" x2="91.8164" y2="261.9688" gradientTransform="matrix(1 -1.880132e-03 1.880185e-03 1 -1.7424 -0.4265)">
		<stop  offset="2.944410e-03" style="stop-color:#9BD7FF"/>
		<stop  offset="1" style="stop-color:#38ADFF"/>
	</linearGradient>
	<polygon class="st7" points="211.5,220.7 150,185.4 150.1,220.9 180.8,238.6 211.5,220.8 211.5,220.7 	"/>
	
		<linearGradient id="SVGID_9_" gradientUnits="userSpaceOnUse" x1="227.5724" y1="356.175" x2="156.7675" y2="146.537" gradientTransform="matrix(1 -1.880132e-03 1.880185e-03 1 -1.7424 -0.4265)">
		<stop  offset="1.923681e-03" style="stop-color:#005AFF"/>
		<stop  offset="0.9995" style="stop-color:#00B8FF"/>
	</linearGradient>
	<polygon class="st8" points="211.5,220.7 150,185.4 150.1,220.9 180.8,238.6 211.5,220.7 	"/>
	
		<linearGradient id="SVGID_10_" gradientUnits="userSpaceOnUse" x1="220.5913" y1="85.2868" x2="49.1314" y2="195.6598" gradientTransform="matrix(1 -1.880132e-03 1.880185e-03 1 -1.7424 -0.4265)">
		<stop  offset="2.944410e-03" style="stop-color:#9BD7FF"/>
		<stop  offset="1" style="stop-color:#38ADFF"/>
	</linearGradient>
	<polygon class="st9" points="88.5,150 119.3,167.7 119.3,167.7 	"/>
	
		<linearGradient id="SVGID_11_" gradientUnits="userSpaceOnUse" x1="220.5913" y1="85.2868" x2="49.1314" y2="195.6598" gradientTransform="matrix(1 -1.880132e-03 1.880185e-03 1 -1.7424 -0.4265)">
		<stop  offset="2.944410e-03" style="stop-color:#CDEBFF"/>
		<stop  offset="1" style="stop-color:#69C2FF"/>
	</linearGradient>
	<polygon class="st10" points="88.5,150 119.3,167.7 119.3,167.7 	"/>
	
		<linearGradient id="SVGID_12_" gradientUnits="userSpaceOnUse" x1="206.3056" y1="63.0952" x2="34.8457" y2="173.4682" gradientTransform="matrix(1 -1.880132e-03 1.880185e-03 1 -1.7424 -0.4265)">
		<stop  offset="2.944410e-03" style="stop-color:#9BD7FF"/>
		<stop  offset="1" style="stop-color:#38ADFF"/>
	</linearGradient>
	<polygon class="st11" points="180.5,96.7 149.8,79 180.5,96.7 	"/>
	
		<linearGradient id="SVGID_13_" gradientUnits="userSpaceOnUse" x1="206.3056" y1="63.0952" x2="34.8457" y2="173.4682" gradientTransform="matrix(1 -1.880132e-03 1.880185e-03 1 -1.7424 -0.4265)">
		<stop  offset="2.944410e-03" style="stop-color:#9BD7FF"/>
		<stop  offset="1" style="stop-color:#69C2FF"/>
	</linearGradient>
	<polygon class="st12" points="180.5,96.7 149.8,79 180.5,96.7 	"/>
	
		<linearGradient id="SVGID_14_" gradientUnits="userSpaceOnUse" x1="206.3056" y1="63.0952" x2="34.8457" y2="173.4682" gradientTransform="matrix(1 -1.880132e-03 1.880185e-03 1 -1.7424 -0.4265)">
		<stop  offset="2.944410e-03" style="stop-color:#CDEBFF"/>
		<stop  offset="1" style="stop-color:#69C2FF"/>
	</linearGradient>
	<polygon class="st13" points="180.5,96.7 149.8,79 180.5,96.7 	"/>
	
		<linearGradient id="SVGID_15_" gradientUnits="userSpaceOnUse" x1="237.6614" y1="111.8046" x2="66.2015" y2="222.1776" gradientTransform="matrix(1 -1.880132e-03 1.880185e-03 1 -1.7424 -0.4265)">
		<stop  offset="2.944410e-03" style="stop-color:#9BD7FF"/>
		<stop  offset="1" style="stop-color:#38ADFF"/>
	</linearGradient>
	<polygon class="st14" points="119.3,167.7 150,185.4 119.3,167.7 	"/>
	
		<linearGradient id="SVGID_16_" gradientUnits="userSpaceOnUse" x1="237.6614" y1="111.8046" x2="66.2015" y2="222.1776" gradientTransform="matrix(1 -1.880132e-03 1.880185e-03 1 -1.7424 -0.4265)">
		<stop  offset="2.944410e-03" style="stop-color:#CDEBFF"/>
		<stop  offset="1" style="stop-color:#69C2FF"/>
	</linearGradient>
	<polygon class="st15" points="119.3,167.7 150,185.4 119.3,167.7 	"/>
	
		<linearGradient id="SVGID_17_" gradientUnits="userSpaceOnUse" x1="284.5165" y1="268.1446" x2="83.9021" y2="145.2769" gradientTransform="matrix(1 -1.880132e-03 1.880185e-03 1 -1.7424 -0.4265)">
		<stop  offset="2.414416e-03" style="stop-color:#0000E2"/>
		<stop  offset="1" style="stop-color:#38ADFF"/>
	</linearGradient>
	<polygon class="st16" points="119.3,167.7 150,185.4 119.3,167.7 	"/>
	
		<linearGradient id="SVGID_18_" gradientUnits="userSpaceOnUse" x1="253.82" y1="136.9069" x2="82.3606" y2="247.2796" gradientTransform="matrix(1 -1.880132e-03 1.880185e-03 1 -1.7424 -0.4265)">
		<stop  offset="2.944410e-03" style="stop-color:#9BD7FF"/>
		<stop  offset="1" style="stop-color:#38ADFF"/>
	</linearGradient>
	<polygon class="st17" points="119.3,203.2 150.1,220.9 150,185.4 	"/>
	
		<linearGradient id="SVGID_19_" gradientUnits="userSpaceOnUse" x1="21.9852" y1="282.7582" x2="180.2554" y2="185.5748" gradientTransform="matrix(1 -1.880132e-03 1.880185e-03 1 -1.7424 -0.4265)">
		<stop  offset="1.923681e-03" style="stop-color:#0000E2"/>
		<stop  offset="1" style="stop-color:#38ADFF"/>
	</linearGradient>
	<polygon class="st18" points="119.3,203.2 150.1,220.9 150,185.4 	"/>
	
		<linearGradient id="SVGID_20_" gradientUnits="userSpaceOnUse" x1="245.7349" y1="124.347" x2="74.2755" y2="234.7196" gradientTransform="matrix(1 -1.880132e-03 1.880185e-03 1 -1.7424 -0.4265)">
		<stop  offset="2.944410e-03" style="stop-color:#9BD7FF"/>
		<stop  offset="1" style="stop-color:#38ADFF"/>
	</linearGradient>
	<polygon class="st19" points="119.3,203.2 119.3,203.2 150,185.4 	"/>
	
		<linearGradient id="SVGID_21_" gradientUnits="userSpaceOnUse" x1="-31.7872" y1="294.7173" x2="266.0107" y2="117.7045" gradientTransform="matrix(1 -1.880132e-03 1.880185e-03 1 -1.7424 -0.4265)">
		<stop  offset="1.923681e-03" style="stop-color:#0000E2"/>
		<stop  offset="1" style="stop-color:#00D0FF"/>
	</linearGradient>
	<polygon class="st20" points="119.3,203.2 119.3,203.2 150,185.4 	"/>
	
		<linearGradient id="SVGID_22_" gradientUnits="userSpaceOnUse" x1="14.0638" y1="269.8577" x2="172.334" y2="172.6742" gradientTransform="matrix(1 -1.880132e-03 1.880185e-03 1 -1.7424 -0.4265)">
		<stop  offset="1.923681e-03" style="stop-color:#0000E2"/>
		<stop  offset="1" style="stop-color:#38ADFF"/>
	</linearGradient>
	<polygon class="st21" points="119.3,203.2 119.3,203.2 150,185.4 	"/>
	
		<linearGradient id="SVGID_23_" gradientUnits="userSpaceOnUse" x1="214.3669" y1="75.6183" x2="42.9075" y2="185.9909" gradientTransform="matrix(1 -1.880132e-03 1.880185e-03 1 -1.7424 -0.4265)">
		<stop  offset="2.944410e-03" style="stop-color:#9BD7FF"/>
		<stop  offset="1" style="stop-color:#38ADFF"/>
	</linearGradient>
	<polygon class="st22" points="180.5,96.7 149.9,114.4 149.9,114.4 	"/>
	
		<linearGradient id="SVGID_24_" gradientUnits="userSpaceOnUse" x1="214.3669" y1="75.6183" x2="42.9075" y2="185.9909" gradientTransform="matrix(1 -1.880132e-03 1.880185e-03 1 -1.7424 -0.4265)">
		<stop  offset="2.944410e-03" style="stop-color:#CDEBFF"/>
		<stop  offset="1" style="stop-color:#69C2FF"/>
	</linearGradient>
	<polygon class="st23" points="180.5,96.7 149.9,114.4 149.9,114.4 	"/>
	
		<linearGradient id="SVGID_25_" gradientUnits="userSpaceOnUse" x1="214.3669" y1="75.6183" x2="42.9075" y2="185.9909" gradientTransform="matrix(1 -1.880132e-03 1.880185e-03 1 -1.7424 -0.4265)">
		<stop  offset="2.944410e-03" style="stop-color:#69C2FF"/>
		<stop  offset="1" style="stop-color:#38ADFF"/>
	</linearGradient>
	<polygon class="st24" points="180.5,96.7 149.9,114.4 149.9,114.4 	"/>
	
		<linearGradient id="SVGID_26_" gradientUnits="userSpaceOnUse" x1="229.5771" y1="99.2469" x2="58.1179" y2="209.6194" gradientTransform="matrix(1 -1.880132e-03 1.880185e-03 1 -1.7424 -0.4265)">
		<stop  offset="2.944410e-03" style="stop-color:#9BD7FF"/>
		<stop  offset="1" style="stop-color:#38ADFF"/>
	</linearGradient>
	<polygon class="st25" points="119.2,132.2 119.3,167.7 150,185.4 149.9,114.4 	"/>
	
		<linearGradient id="SVGID_27_" gradientUnits="userSpaceOnUse" x1="229.5771" y1="99.2469" x2="58.1179" y2="209.6194" gradientTransform="matrix(1 -1.880132e-03 1.880185e-03 1 -1.7424 -0.4265)">
		<stop  offset="2.944410e-03" style="stop-color:#CDEBFF"/>
		<stop  offset="1" style="stop-color:#69C2FF"/>
	</linearGradient>
	<polygon class="st26" points="119.2,132.2 119.3,167.7 150,185.4 149.9,114.4 	"/>
	
		<linearGradient id="SVGID_28_" gradientUnits="userSpaceOnUse" x1="229.5771" y1="99.2469" x2="58.1179" y2="209.6194" gradientTransform="matrix(1 -1.880132e-03 1.880185e-03 1 -1.7424 -0.4265)">
		<stop  offset="2.944410e-03" style="stop-color:#38ADFF"/>
		<stop  offset="1" style="stop-color:#9BD7FF"/>
	</linearGradient>
	<polygon class="st27" points="119.2,132.2 119.3,167.7 150,185.4 149.9,114.4 	"/>
	
		<linearGradient id="SVGID_29_" gradientUnits="userSpaceOnUse" x1="213.429" y1="74.1613" x2="41.9696" y2="184.534" gradientTransform="matrix(1 -1.880132e-03 1.880185e-03 1 -1.7424 -0.4265)">
		<stop  offset="2.944410e-03" style="stop-color:#9BD7FF"/>
		<stop  offset="1" style="stop-color:#38ADFF"/>
	</linearGradient>
	<polygon class="st28" points="149.9,114.4 119.2,132.2 149.9,114.4 	"/>
	
		<linearGradient id="SVGID_30_" gradientUnits="userSpaceOnUse" x1="213.429" y1="74.1613" x2="41.9696" y2="184.534" gradientTransform="matrix(1 -1.880132e-03 1.880185e-03 1 -1.7424 -0.4265)">
		<stop  offset="2.944410e-03" style="stop-color:#CDEBFF"/>
		<stop  offset="1" style="stop-color:#69C2FF"/>
	</linearGradient>
	<polygon class="st29" points="149.9,114.4 119.2,132.2 149.9,114.4 	"/>
	
		<linearGradient id="SVGID_31_" gradientUnits="userSpaceOnUse" x1="213.429" y1="74.1613" x2="41.9696" y2="184.534" gradientTransform="matrix(1 -1.880132e-03 1.880185e-03 1 -1.7424 -0.4265)">
		<stop  offset="2.944410e-03" style="stop-color:#69C2FF"/>
		<stop  offset="1" style="stop-color:#38ADFF"/>
	</linearGradient>
	<polygon class="st30" points="149.9,114.4 119.2,132.2 149.9,114.4 	"/>
	
		<linearGradient id="SVGID_32_" gradientUnits="userSpaceOnUse" x1="213.429" y1="74.1613" x2="41.9696" y2="184.534" gradientTransform="matrix(1 -1.880132e-03 1.880185e-03 1 -1.7424 -0.4265)">
		<stop  offset="2.944410e-03" style="stop-color:#38ADFF"/>
		<stop  offset="1" style="stop-color:#9BD7FF"/>
	</linearGradient>
	<polygon class="st31" points="149.9,114.4 119.2,132.2 149.9,114.4 	"/>
	
		<linearGradient id="SVGID_33_" gradientUnits="userSpaceOnUse" x1="206.3055" y1="63.0953" x2="34.8462" y2="173.4679" gradientTransform="matrix(1 -1.880132e-03 1.880185e-03 1 -1.7424 -0.4265)">
		<stop  offset="2.944410e-03" style="stop-color:#9BD7FF"/>
		<stop  offset="1" style="stop-color:#38ADFF"/>
	</linearGradient>
	<polygon class="st32" points="149.8,79 149.8,79 149.9,114.4 180.5,96.7 	"/>
	
		<linearGradient id="SVGID_34_" gradientUnits="userSpaceOnUse" x1="206.3055" y1="63.0953" x2="34.8462" y2="173.4679" gradientTransform="matrix(1 -1.880132e-03 1.880185e-03 1 -1.7424 -0.4265)">
		<stop  offset="2.944410e-03" style="stop-color:#CDEBFF"/>
		<stop  offset="1" style="stop-color:#69C2FF"/>
	</linearGradient>
	<polygon class="st33" points="149.8,79 149.8,79 149.9,114.4 180.5,96.7 	"/>
	
		<linearGradient id="SVGID_35_" gradientUnits="userSpaceOnUse" x1="206.3055" y1="63.0953" x2="34.8462" y2="173.4679" gradientTransform="matrix(1 -1.880132e-03 1.880185e-03 1 -1.7424 -0.4265)">
		<stop  offset="2.944410e-03" style="stop-color:#69C2FF"/>
		<stop  offset="1" style="stop-color:#38ADFF"/>
	</linearGradient>
	<polygon class="st34" points="149.8,79 149.8,79 149.9,114.4 180.5,96.7 	"/>
	
		<linearGradient id="SVGID_36_" gradientUnits="userSpaceOnUse" x1="206.3055" y1="63.0953" x2="34.8462" y2="173.4679" gradientTransform="matrix(1 -1.880132e-03 1.880185e-03 1 -1.7424 -0.4265)">
		<stop  offset="2.944410e-03" style="stop-color:#9BD7FF"/>
		<stop  offset="1" style="stop-color:#38ADFF"/>
	</linearGradient>
	<polygon class="st35" points="149.8,79 149.8,79 149.9,114.4 180.5,96.7 	"/>
	
		<linearGradient id="SVGID_37_" gradientUnits="userSpaceOnUse" x1="213.4155" y1="212.8218" x2="103.6851" y2="305.8843" gradientTransform="matrix(1 -1.880132e-03 1.880185e-03 1 -1.7424 -0.4265)">
		<stop  offset="2.434045e-03" style="stop-color:#00B8FF"/>
		<stop  offset="1" style="stop-color:#0000E2"/>
	</linearGradient>
	<polygon class="st36" points="150.1,220.9 150.1,256.2 180.9,274.1 211.6,256.3 211.5,220.7 180.8,238.6 	"/>
	
		<linearGradient id="SVGID_38_" gradientUnits="userSpaceOnUse" x1="-55.5935" y1="254.6668" x2="242.2042" y2="77.6541" gradientTransform="matrix(1 -1.880132e-03 1.880185e-03 1 -1.7424 -0.4265)">
		<stop  offset="1.923681e-03" style="stop-color:#0000E2"/>
		<stop  offset="1" style="stop-color:#00D0FF"/>
	</linearGradient>
	<polygon class="st37" points="119.3,167.7 88.5,150 88.5,114.6 27.1,150.2 27.2,185.5 88.8,220.9 119.3,203.2 	"/>
	
		<linearGradient id="SVGID_39_" gradientUnits="userSpaceOnUse" x1="212.5326" y1="72.7689" x2="41.0733" y2="183.1415" gradientTransform="matrix(1 -1.880132e-03 1.880185e-03 1 -1.7424 -0.4265)">
		<stop  offset="2.944410e-03" style="stop-color:#69C2FF"/>
		<stop  offset="1" style="stop-color:#38ADFF"/>
	</linearGradient>
	<polygon class="st38" points="119.3,167.7 119.2,132.2 149.9,114.4 149.8,79 88.5,114.6 88.5,150 	"/>
	
		<linearGradient id="SVGID_40_" gradientUnits="userSpaceOnUse" x1="206.8133" y1="63.8841" x2="35.3537" y2="174.2568" gradientTransform="matrix(1 -1.880132e-03 1.880185e-03 1 -1.7424 -0.4265)">
		<stop  offset="2.944410e-03" style="stop-color:#9BD7FF"/>
		<stop  offset="1" style="stop-color:#69C2FF"/>
	</linearGradient>
	<polygon class="st39" points="149.8,79 149.8,79 180.5,96.7 180.5,96.6 210.4,113.8 211.3,114.3 211.2,79 149.8,43.7 149.7,43.7 	
		"/>
	
		<linearGradient id="SVGID_41_" gradientUnits="userSpaceOnUse" x1="198.7746" y1="51.3964" x2="27.315" y2="161.7691" gradientTransform="matrix(1 -1.880132e-03 1.880185e-03 1 -1.7424 -0.4265)">
		<stop  offset="2.944410e-03" style="stop-color:#69C2FF"/>
		<stop  offset="1" style="stop-color:#9BD7FF"/>
	</linearGradient>
	<polygon class="st40" points="211.2,43.8 180.4,25.9 149.8,43.7 211.2,79 	"/>
	
		<linearGradient id="SVGID_42_" gradientUnits="userSpaceOnUse" x1="282.3651" y1="337.6688" x2="211.5603" y2="128.031" gradientTransform="matrix(1 -1.880132e-03 1.880185e-03 1 -1.7424 -0.4265)">
		<stop  offset="1.923681e-03" style="stop-color:#005AFF"/>
		<stop  offset="0.9995" style="stop-color:#00B8FF"/>
	</linearGradient>
	<polygon class="st41" points="211.3,114.3 211.4,149.8 211.5,220.7 242.2,202.9 242,132 	"/>
	
		<linearGradient id="SVGID_43_" gradientUnits="userSpaceOnUse" x1="263.2643" y1="151.5782" x2="91.8049" y2="261.9509" gradientTransform="matrix(1 -1.880132e-03 1.880185e-03 1 -1.7424 -0.4265)">
		<stop  offset="2.944410e-03" style="stop-color:#CDEBFF"/>
		<stop  offset="0.9995" style="stop-color:#38ADFF"/>
	</linearGradient>
	<polygon class="st42" points="211.5,220.7 211.5,220.7 211.4,149.8 150,185.4 	"/>
	
		<linearGradient id="SVGID_44_" gradientUnits="userSpaceOnUse" x1="230.9654" y1="101.4033" x2="59.5061" y2="211.7759" gradientTransform="matrix(1 -1.880132e-03 1.880185e-03 1 -1.7424 -0.4265)">
		<stop  offset="2.944410e-03" style="stop-color:#CDEBFF"/>
		<stop  offset="1" style="stop-color:#69C2FF"/>
	</linearGradient>
	<polygon class="st43" points="180.5,96.7 180.5,96.7 149.9,114.4 150,185.4 211.4,149.8 211.3,114.3 210.4,113.8 	"/>
</g>
</svg>
